<svg version="1.2" xmlns="http://www.w3.org/2000/svg" viewBox="0 0 543 522" width="543" height="522">
	<title>mawja palette</title>
	<style>
		.s0 { fill: #ffffba } 
	</style>
	<g id="Layer 1">
		<g id="&lt;Group&gt;">
		</g>
		<g id="&lt;Group&gt;">
		</g>
		<g id="&lt;Group&gt;">
		</g>
		<g id="&lt;Group&gt;">
		</g>
		<g id="&lt;Group&gt;">
		</g>
		<g id="&lt;Group&gt;">
		</g>
		<g id="&lt;Group&gt;">
		</g>
		<g id="&lt;Group&gt;">
			<path id="&lt;Compound Path&gt;" class="s0" d="m482.1 403.5c-6.5 3.2-14 3.2-20.4 0.1q0 0.1 0.1 0.1v29c-41.1-27.7-78.9-37.8-112.4-30-23.3 5.5-36.6 17.3-48.3 27.7-10.7 9.5-19.2 17-35 19.2-19.1 2.6-32.5-5-49.5-14.6-17.9-10.1-38.3-21.5-68.2-22.5q-2-0.1-4.1-0.1c-24.3 0-48.8 7.3-73.1 21.6v-30c-6.5 3.1-14.1 3-20.7-0.3-7.8-4.1-12.7-12.1-12.7-20.9v69.7c0 8.8 4.9 16.8 12.7 20.8 7.9 4.1 17.2 3.4 24.4-1.8 24.6-17.8 49-26.4 72.4-25.6 21.7 0.7 36.9 9.2 52.9 18.3 16.3 9.1 34.4 19.3 58.4 19.3q5.8 0 12-0.8c25.9-3.5 40.1-16.2 52.7-27.3 10-8.9 18.6-16.6 33.7-20.1 27.6-6.5 61.5 5.5 100.5 35.4 7.1 5.5 16.6 6.4 24.6 2.5 8.1-4 13.1-12.1 13.1-21v-69.7c0 9-5 17-13.1 21z"/>
			<path id="&lt;Compound Path&gt;" fill-rule="evenodd" class="s0" d="m406.5 335.7q3.1 1 6.3 2.1-3.2-1.1-6.3-2.1zm-12.9-3.1q3 0.6 6.1 1.3-3.1-0.7-6.1-1.3zm-9.4-1.4q4.7 0.5 9.4 1.4-4.7-0.9-9.4-1.4zm-9.1-0.7q-2 0-4 0 2 0 4 0zm-4 0q-1.9 0-3.8 0.1 1.9-0.1 3.8-0.1zm-13.3 1q4-0.6 8.1-0.8-4.1 0.2-8.1 0.8z"/>
			<path id="&lt;Path&gt;" class="s0" d="m495.2 299.3v83.2c0 9-5 17-13.1 21-6.5 3.2-14 3.2-20.4 0.1q-0.9-0.4-1.7-0.9-0.5-0.3-0.9-0.5-0.8-0.5-1.6-1.2c-39-29.9-72.9-41.9-100.5-35.4-15.1 3.5-23.7 11.2-33.7 20.1-12.6 11.1-26.8 23.8-52.7 27.3q-6.2 0.8-12 0.8-4.8 0-9.2-0.5-1.5-0.2-3-0.4-0.2 0-0.3 0-1.1-0.2-2.1-0.4-0.6-0.1-1.1-0.2-1-0.2-1.9-0.4-0.3 0-0.6-0.1-0.8-0.2-1.5-0.3-0.6-0.2-1.2-0.3-1.3-0.3-2.5-0.7-0.7-0.2-1.4-0.4-0.9-0.3-1.8-0.6-1.2-0.4-2.4-0.8-1.6-0.5-3.1-1.1-1.4-0.6-2.9-1.2-0.3-0.1-0.7-0.3-1.2-0.5-2.4-1.1-0.1 0-0.1 0-1.6-0.7-3.1-1.4-1.3-0.6-2.5-1.2-0.2-0.1-0.3-0.2-1.5-0.7-2.9-1.5-0.3-0.1-0.6-0.3-1.5-0.8-3-1.6-1.6-0.9-3.2-1.7-2.3-1.3-4.6-2.6c-16-9.1-31.2-17.6-52.9-18.3-23.4-0.8-47.8 7.8-72.4 25.6q-0.4 0.3-0.9 0.6-0.4 0.3-0.9 0.6-0.9 0.5-1.9 1c-6.5 3.1-14.1 3-20.7-0.3-7.8-4.1-12.7-12.1-12.7-20.9v-83.2c0 8.9 4.9 16.9 12.7 20.9 6.7 3.4 14.5 3.4 21.1 0.1q-0.2 0.1-0.4 0.2v43.5q0.4-0.2 0.7-0.4 1.6-1 3.3-1.9 1.6-0.9 3.2-1.7 1.9-1.1 3.9-2 0.1-0.1 0.2-0.1 1.4-0.7 2.7-1.4 0.9-0.4 1.6-0.7 1.5-0.7 2.9-1.3 0 0 0.1 0 0-0.1 0-0.1 1-0.4 1.9-0.8 2.3-1 4.6-1.8 0.7-0.3 1.4-0.6 0.1 0 0.2-0.1 0.7-0.2 1.5-0.5 0.9-0.3 1.8-0.7 0.1 0 0.1 0 0.1 0 0.1 0 0.9-0.3 1.7-0.6 0 0 0 0 0 0 0.1 0 2.2-0.8 4.5-1.5 0.8-0.2 1.5-0.4 0.3-0.1 0.6-0.2 0.2 0 0.3 0 1.1-0.3 2.2-0.6 1-0.3 2.1-0.5 0.1-0.1 0.2-0.1 1.5-0.3 3-0.7 1.1-0.2 2.2-0.4 1.1-0.3 2.2-0.4 1.1-0.3 2.3-0.4 0.2-0.1 0.3-0.1 0.2 0 0.4 0 0.8-0.2 1.6-0.3 0.8-0.1 1.7-0.2 1-0.1 2.1-0.3 1.1-0.1 2.3-0.2 1.3-0.1 2.7-0.2 1-0.1 2-0.2 1 0 1.9-0.1 0.5 0 0.9 0h0.2q0.8 0 1.6 0 1.2-0.1 2.3-0.1 2.1 0 4.1 0.1c29.9 1 50.3 12.5 68.2 22.6 17 9.5 30.4 17.1 49.5 14.5 15.8-2.2 24.3-9.7 35-19.2 11.7-10.4 25-22.2 48.3-27.7q2.8-0.6 5.6-1.1 1.4-0.2 2.8-0.4 4-0.6 8.1-0.8 0.1 0 0.2 0 0.1-0.1 0.3-0.1 0.4 0 0.9 0 3.8-0.2 7.8-0.1 1.5 0.1 3 0.2 1.5 0.1 3.1 0.2 1.5 0.1 3 0.3 4.7 0.5 9.4 1.4 3 0.6 6.1 1.3 0.3 0.1 0.5 0.2 1.5 0.3 2.9 0.7 1.7 0.4 3.4 0.9 3.1 1 6.3 2.1 0.2 0 0.4 0.1 1.5 0.5 2.9 1 1.6 0.6 3.3 1.3 1.3 0.5 2.7 1.1 0.5 0.2 1 0.4 1.4 0.6 2.9 1.3 1.7 0.7 3.3 1.5 1.7 0.7 3.4 1.5 1.7 0.9 3.4 1.7 1.6 0.9 3.4 1.8 1.4 0.8 2.8 1.5 0.2 0.1 0.3 0.2 0.2 0.1 0.4 0.2 1.3 0.8 2.7 1.6 1.5 0.8 3 1.7 6 3.5 12 7.6 0.6 0.3 1.1 0.7v-42.5c6.3 3 13.8 3 20.3-0.2 8.1-4 13.1-12 13.1-21z"/>
			<path id="&lt;Compound Path&gt;" fill-rule="evenodd" class="s0" d="m426 259.8q3.3 1.4 6.7 3.1-3.4-1.6-6.7-3.1zm-16.4-6.2q3.3 1 6.5 2.2-3.2-1.2-6.5-2.2zm-9.6-2.8q4.7 1.2 9.6 2.7-4.9-1.5-9.6-2.7zm-18.8-3.1q9.2 0.8 18.8 3.1-9.6-2.3-18.8-3.1zm-9-0.4q-3 0-5.9 0.2 2.9-0.2 5.9-0.2zm5.3 0.2q-2.7-0.2-5.3-0.2 2.6 0 5.3 0.2zm0.6 0q-0.3 0-0.6 0 0.3 0 0.6 0zm-23.1 1.3q5.5-1 11.3-1.3-5.8 0.3-11.3 1.3z"/>
			<path id="&lt;Compound Path&gt;" fill-rule="evenodd" class="s0" d="m495.2 25.4v273.9c0 9-5 17-13.1 21-6.5 3.2-14 3.2-20.3 0.2q-1-0.4-1.8-1-0.5-0.2-0.9-0.5-0.8-0.5-1.6-1.1c-39-30-72.9-41.9-100.5-35.5-15.1 3.5-23.7 11.2-33.7 20.1-12.6 11.2-26.8 23.8-52.7 27.3-4.2 0.6-8.1 0.8-12 0.8-12 0-22.5-2.5-32.1-6.2q-1.8-0.7-3.5-1.4 0 0 0 0-1.8-0.8-3.5-1.6-1.7-0.7-3.4-1.5-1.6-0.9-3.3-1.7c-4.3-2.2-8.5-4.6-12.6-6.9-16-9-31.2-17.5-52.9-18.3-23.4-0.7-47.8 7.9-72.4 25.6q-0.4 0.3-0.8 0.6-0.3 0.2-0.6 0.4-0.9 0.6-1.9 1c-6.6 3.3-14.4 3.3-21.1-0.1-7.8-4-12.7-12-12.7-20.9v-274.2zm-33.4 33.4h-390.6v222.4q0.4-0.3 0.8-0.5 1.4-0.8 2.9-1.7 1.3-0.7 2.6-1.4 2.8-1.5 5.6-2.9 1.3-0.7 2.7-1.3 1.4-0.6 2.7-1.2 4.5-2.1 9-3.8 1.1-0.4 2.2-0.8 4.5-1.6 9-2.9 1-0.3 2-0.5 4.3-1.2 8.6-2.1 1.3-0.3 2.7-0.5 1.4-0.3 2.8-0.5 1-0.1 2.1-0.3 0.7-0.1 1.4-0.2 2.7-0.3 5.4-0.6 0.9 0 1.9-0.1 2.4-0.2 4.8-0.3 0.8 0 1.6 0 1.2 0 2.3 0 2.1 0 4.1 0c29.9 1.1 50.3 12.5 68.2 22.6 17 9.6 30.4 17.1 49.5 14.5 15.8-2.1 24.3-9.6 35-19.2 11.7-10.4 25-22.2 48.3-27.6q2.8-0.7 5.6-1.1 1.4-0.3 2.8-0.5 4.2-0.6 8.5-0.8 3.1-0.2 6.4-0.2 2.7 0.1 5.4 0.2 1.6 0.1 3.1 0.2 5.8 0.5 11.6 1.6 2.4 0.4 4.8 1 1.2 0.2 2.4 0.5 3.5 0.9 7.2 2 1.2 0.4 2.4 0.7 0 0 0.1 0.1 3.2 1 6.4 2.2 0 0 0 0 1.7 0.6 3.3 1.2 1.6 0.7 3.3 1.4 1.7 0.7 3.3 1.4 3.3 1.5 6.7 3.1 1.7 0.8 3.4 1.7 1.6 0.8 3.2 1.6 0.2 0.1 0.5 0.3 1.5 0.8 3.1 1.7 1.4 0.8 2.8 1.6 3.7 2.1 7.5 4.4 1.6 1.1 3.3 2.1 2.1 1.4 4.3 2.8 0.5 0.4 1 0.7z"/>
		</g>
		<g id="&lt;Group&gt;">
		</g>
	</g>
</svg>